<svg width="1920" height="1080" viewBox="0 0 1920 1080" fill="none" xmlns="http://www.w3.org/2000/svg">
<path fill-rule="evenodd" clip-rule="evenodd" d="M0 0H1919V1080H0V0Z" fill="#E0E0E0"/>
<path d="M0 425.6V417.775C22.5025 414.66 44.4408 409.767 65.6908 403.296L117.428 244.004L39.367 138.3C34.5518 138.3 29.7389 138.3 24.9237 138.3C16.6166 138.3 8.30829 138.3 0 138.3V0H88.2606C83.718 13.9878 79.1767 27.9673 74.6365 41.954C66.0036 68.5418 57.3695 95.1249 48.7366 121.713C47.6895 124.925 46.6459 128.15 45.5988 131.367L74.666 170.721L124.809 238.617H291.231C337.282 172.171 364.834 92.0127 366.555 5.43308L359.076 0H374.507C372.953 217.5 210.144 397.359 0 425.6Z" fill="#D3D3D3"/>
<path d="M1919 1080H1755.25C1754.82 1078.66 1754.38 1077.33 1753.95 1075.99C1748.95 1060.59 1743.95 1045.19 1738.94 1029.78C1737.61 1025.67 1736.27 1021.56 1734.93 1017.44L1656.95 991.82L1570.79 1054.44C1571 1063.07 1571.63 1071.59 1572.64 1080H1567.72C1566.46 1069.4 1565.81 1058.62 1565.81 1047.69C1565.81 897.99 1687.54 776.207 1837.16 776.207C1866.03 776.207 1893.88 780.745 1920 789.141V799.911L1839.99 858.062V942.87C1866.66 962.257 1893.33 981.645 1920 1001.03V1076.93C1919.67 1077.95 1919.34 1078.98 1919 1080ZM1748.95 796.056C1699.72 813.332 1657.1 844.615 1625.88 885.183L1658.72 986.369L1738.41 1012.55C1743.51 1008.84 1748.62 1005.13 1753.72 1001.42C1780.57 981.903 1807.42 962.387 1834.26 942.874V858.062L1748.95 796.056Z" fill="#D3D3D3"/>
</svg>
