<svg width="355" height="304" viewBox="0 0 355 304" fill="none" xmlns="http://www.w3.org/2000/svg">
<path d="M354.005 304H190.248C189.815 302.662 189.382 301.328 188.948 299.99C183.947 284.592 178.946 269.187 173.94 253.783C172.607 249.669 171.271 245.556 169.933 241.44L91.9487 215.82L5.78589 278.441C6.00192 287.071 6.62645 295.594 7.63813 304H2.72492C1.46297 293.403 0.8125 282.621 0.8125 271.691C0.808959 121.99 122.538 0.207031 272.155 0.207031C301.033 0.207031 328.877 4.7448 355 13.1413V23.9105L274.987 82.0621V166.87C301.657 186.257 328.331 205.645 355 225.032V300.932C354.667 301.953 354.338 302.978 354.005 304ZM183.952 20.0565C134.719 37.3325 92.1034 68.6154 60.8817 109.183L93.7194 210.369L173.407 236.553C178.513 232.841 183.619 229.128 188.724 225.42C215.572 205.903 242.417 186.387 269.262 166.874V82.0621L183.952 20.0565Z" fill="#D3D3D3"/>
</svg>
