<svg width="375" height="426" viewBox="0 0 375 426" fill="none" xmlns="http://www.w3.org/2000/svg">
<path d="M0 425.6V417.775C22.5025 414.66 44.4408 409.767 65.6908 403.296L117.428 244.004L39.367 138.3C34.5518 138.3 29.7389 138.3 24.9237 138.3C16.6166 138.3 8.30829 138.3 0 138.3V0H88.2606C83.718 13.9878 79.1767 27.9673 74.6365 41.954C66.0036 68.5418 57.3695 95.1249 48.7366 121.713C47.6895 124.925 46.6459 128.15 45.5988 131.367L74.666 170.721L124.809 238.617H291.231C337.282 172.171 364.834 92.0127 366.555 5.43308L359.076 0H374.507C372.953 217.5 210.144 397.359 0 425.6Z" fill="#D3D3D3"/>
</svg>
