<svg width="554" height="325" viewBox="0 0 554 325" fill="none" xmlns="http://www.w3.org/2000/svg">
<path d="M333.078 191.73C330.705 191.73 329.69 188.562 329.69 179.84C329.69 175.313 331.889 174.182 338.162 174.182C339.81 174.182 341.124 174.195 342.387 174.216C340.386 180.384 337.703 191.73 333.078 191.73ZM320.359 185.784C320.359 188.093 320.579 190.062 320.979 191.73H287.808C283.397 191.73 280.576 190.709 280.576 186.632V175.313H291.024C291.878 172.768 292.439 170.441 292.721 167.958H280.58C280.629 164.466 280.883 161.346 281.138 157.766C277.183 159.18 274.078 160.821 271.53 163.654L271.531 167.958H266.161C265.711 171.015 265.711 173.33 265.6 175.313H271.531V187.201C271.531 195.522 276.563 199.088 283.456 199.088H328.555C334.08 199.088 338.324 194.552 342.402 184.286V199.088H351.443V167.958C347.376 167.616 343.644 167.387 339.577 167.387C328.387 167.387 320.359 172.032 320.359 185.784ZM367.835 182.331V179.277C367.835 175.312 367.549 171.916 366.988 167.958H358.227C358.51 171.916 358.791 175.313 358.791 179.277V199.088H367.835C367.835 187.99 371.393 175.369 380.83 176.729C380.83 174.747 380.548 170.217 379.987 167.387C373.096 167.987 369.722 174.067 367.835 182.331ZM243.273 191.73C240.899 191.73 239.882 188.562 239.882 179.84C239.882 175.313 242.087 174.182 248.357 174.182C250.004 174.182 251.32 174.195 252.589 174.216C250.582 180.384 247.904 191.73 243.273 191.73ZM230.56 185.784C230.56 195.183 233.947 199.655 238.471 199.655C244.011 199.655 248.434 194.741 252.6 184.271V199.089L261.644 199.088V167.958C257.574 167.616 253.845 167.387 249.772 167.387C238.582 167.387 230.56 172.032 230.56 185.784ZM525.228 171.352C525.228 163.599 519.858 158.898 510.25 158.898C504.94 158.898 501.043 160.03 498.667 161.166C497.311 163.086 496.691 165.298 495.84 168.8C499.458 167.387 502.96 166.259 508.274 166.259C512.512 166.259 515.905 168.07 515.905 173.051C515.905 178.423 512.571 182.331 494.427 192.858C494.427 193.992 494.486 196.254 494.993 199.089L524.942 199.088C525.796 196.54 526.357 194.278 526.639 191.73H501.148C513.883 187.369 525.228 182.813 525.228 171.352ZM209.263 190.395L208.798 190.143C203.375 187.259 196.082 182.847 196.082 174.806C196.082 167.442 200.835 163.99 206.539 163.99C212.871 163.99 216.712 168.461 216.712 176.279C216.712 181.66 213.752 186.408 209.263 190.395ZM226.602 199.653L211.714 191.702C220.14 188.636 226.319 182.586 226.319 174.011C226.319 162.461 217.67 156.636 206.539 156.636C196.312 156.636 186.477 163.201 186.477 175.881C186.477 186.58 194.615 192.973 203.543 197.671L232.251 212.673C232.251 206.051 231.463 202.254 226.602 199.653ZM438.193 196.254C435.655 196.254 427.738 191.103 427.738 177.298C427.738 170.5 431.697 166.259 438.193 166.259C444.691 166.259 448.653 170.5 448.653 177.298C448.653 191.103 440.739 196.254 438.193 196.254ZM438.193 158.898C426.894 158.898 418.413 165.691 418.413 176.729C418.413 191.162 432.261 199.653 438.193 199.653C444.13 199.653 457.972 191.162 457.972 176.729C457.972 165.691 449.501 158.898 438.193 158.898ZM438.319 174.33C436.343 175.742 434.647 177.392 433.152 179.277C434.647 181.163 436.343 182.807 438.319 184.223C440.296 182.807 441.987 181.163 443.495 179.277C441.987 177.392 440.296 175.742 438.319 174.33ZM490.191 171.352C490.191 163.599 484.818 158.898 475.208 158.898C469.9 158.898 466.001 160.03 463.624 161.166C462.272 163.086 461.648 165.298 460.798 168.8C464.419 167.387 467.924 166.259 473.235 166.259C477.473 166.259 480.866 168.07 480.866 173.051C480.866 178.423 477.532 182.331 459.39 192.858C459.39 193.992 459.446 196.254 459.955 199.089L489.909 199.088C490.753 196.54 491.32 194.278 491.603 191.73H466.109C478.847 187.369 490.191 182.813 490.191 171.352ZM413.89 171.352C413.89 163.599 408.527 158.898 398.919 158.898C393.605 158.898 389.706 160.03 387.335 161.166C385.977 163.086 385.353 165.298 384.509 168.8C388.123 167.387 391.629 166.259 396.943 166.259C401.177 166.259 404.568 168.07 404.568 173.051C404.568 178.423 401.233 182.331 383.095 192.858C383.095 193.992 383.151 196.254 383.662 199.089L413.614 199.088C414.464 196.54 415.025 194.278 415.305 191.73H389.815C402.546 187.369 413.89 182.813 413.89 171.352Z" fill="#9C092F"/>
<path d="M491.022 145.563C489.74 145.887 488.332 146.192 486.803 146.48C485.261 146.769 483.36 146.909 481.085 146.909C478.846 146.909 476.578 146.607 474.289 145.999C471.999 145.393 469.937 144.414 468.1 143.065C466.26 141.72 464.753 139.946 463.586 137.753C462.41 135.558 461.831 132.868 461.831 129.696C461.831 126.781 462.315 124.221 463.273 122.027C464.232 119.83 465.571 118.007 467.281 116.54C468.993 115.082 471.028 113.996 473.379 113.274C475.731 112.55 478.285 112.193 481.035 112.193C482.767 112.193 484.445 112.358 486.076 112.697C487.712 113.03 489.343 113.44 490.972 113.921L490.259 121.185C488.817 120.381 487.383 119.787 485.962 119.405C484.531 119.019 483.053 118.827 481.52 118.827C479.916 118.827 478.479 119.097 477.198 119.647C475.918 120.187 474.823 120.943 473.907 121.903C472.992 122.87 472.288 124.015 471.791 125.345C471.295 126.673 471.053 128.123 471.053 129.695C471.053 131.33 471.329 132.806 471.894 134.123C472.449 135.434 473.218 136.547 474.196 137.463C475.172 138.374 476.349 139.073 477.722 139.554C479.1 140.033 480.602 140.275 482.24 140.275C483.709 140.275 485.168 140.108 486.608 139.769C488.05 139.436 489.374 139.026 490.591 138.544L491.022 145.563Z" fill="#9C092F"/>
<path d="M523.193 133.589C523.193 135.901 522.838 137.884 522.134 139.555C521.43 141.22 520.435 142.6 519.138 143.688C517.839 144.781 516.287 145.589 514.478 146.117C512.67 146.651 510.675 146.909 508.497 146.909C506.323 146.909 504.332 146.651 502.52 146.117C500.714 145.589 499.163 144.781 497.863 143.688C496.567 142.6 495.57 141.22 494.866 139.555C494.162 137.884 493.809 135.901 493.809 133.589V112.765H502.739V132.101C502.739 133.223 502.827 134.27 503.003 135.249C503.178 136.23 503.487 137.091 503.916 137.846C504.347 138.598 504.933 139.191 505.669 139.624C506.4 140.058 507.349 140.275 508.497 140.275C509.651 140.275 510.597 140.058 511.336 139.624C512.074 139.191 512.654 138.598 513.088 137.846C513.517 137.091 513.824 136.23 514 135.249C514.171 134.27 514.265 133.222 514.265 132.101V112.765H523.193V133.589Z" fill="#9C092F"/>
<path d="M536.592 128.252H538.893C539.663 128.252 540.382 128.177 541.056 128.038C541.725 127.888 542.312 127.634 542.805 127.267C543.302 126.901 543.695 126.415 543.985 125.822C544.27 125.232 544.416 124.502 544.416 123.638C544.416 122.768 544.27 122.048 543.985 121.476C543.695 120.897 543.302 120.432 542.805 120.077C542.312 119.727 541.725 119.474 541.056 119.335C540.382 119.186 539.663 119.114 538.893 119.114H536.592V128.252ZM527.657 112.766H538.317C543.472 112.766 547.266 113.658 549.701 115.436C552.131 117.219 553.35 119.996 553.35 123.78C553.35 127.179 552.181 129.833 549.844 131.738C547.502 133.648 544.239 134.599 540.045 134.599H536.592V146.332H527.657V112.766Z" fill="#9C092F"/>
<path d="M275.587 112.765H284.711L289.036 138.545H289.131L293.64 112.765H304.972L309.678 138.545H309.777L314.145 112.765H322.837L315.342 146.335H303.87L299.117 120.558H299.018L294.604 146.335H283.03L275.587 112.765Z" fill="#9C092F"/>
<path d="M332.391 129.55C332.391 130.933 332.533 132.269 332.825 133.568C333.11 134.864 333.554 136.009 334.165 137.004C334.773 137.998 335.558 138.791 336.522 139.384C337.481 139.978 338.629 140.276 339.978 140.276C341.318 140.276 342.478 139.978 343.437 139.384C344.395 138.791 345.177 137.998 345.783 137.004C346.394 136.009 346.844 134.864 347.132 133.568C347.418 132.269 347.563 130.933 347.563 129.55C347.563 128.111 347.418 126.739 347.132 125.443C346.844 124.144 346.394 123.004 345.783 122.022C345.177 121.049 344.396 120.27 343.437 119.691C342.478 119.114 341.318 118.831 339.978 118.831C338.629 118.831 337.481 119.114 336.522 119.691C335.558 120.27 334.773 121.049 334.165 122.022C333.554 123.004 333.11 124.144 332.825 125.443C332.533 126.739 332.391 128.111 332.391 129.55ZM323.167 129.55C323.167 126.856 323.531 124.436 324.25 122.29C324.967 120.142 326.034 118.321 327.443 116.833C328.851 115.341 330.607 114.192 332.698 113.394C334.795 112.592 337.22 112.188 339.978 112.188C342.728 112.188 345.152 112.592 347.25 113.394C349.348 114.192 351.1 115.341 352.508 116.833C353.916 118.321 354.98 120.142 355.703 122.29C356.424 124.436 356.78 126.856 356.78 129.55C356.78 132.21 356.424 134.614 355.703 136.765C354.98 138.915 353.904 140.742 352.484 142.246C351.059 143.753 349.3 144.909 347.2 145.707C345.11 146.512 342.693 146.912 339.978 146.912C337.22 146.912 334.807 146.512 332.722 145.707C330.65 144.909 328.894 143.753 327.468 142.246C326.043 140.742 324.967 138.915 324.25 136.765C323.531 134.614 323.167 132.21 323.167 129.55Z" fill="#9C092F"/>
<path d="M369.074 126.714H371.422C372.13 126.714 372.874 126.689 373.656 126.64C374.444 126.592 375.148 126.44 375.771 126.186C376.395 125.925 376.916 125.542 377.329 125.03C377.747 124.514 377.953 123.781 377.953 122.815C377.953 122.048 377.772 121.417 377.4 120.92C377.034 120.422 376.557 120.043 375.964 119.788C375.371 119.534 374.682 119.359 373.894 119.26C373.112 119.161 372.29 119.114 371.422 119.114H369.074V126.714ZM360.145 112.766H376.084C377.552 112.766 378.951 112.938 380.261 113.269C381.573 113.608 382.727 114.134 383.719 114.839C384.706 115.544 385.485 116.421 386.046 117.477C386.607 118.54 386.887 119.788 386.887 121.23C386.887 123.473 386.359 125.319 385.298 126.764C384.247 128.202 382.627 129.181 380.453 129.698V129.791C381.157 129.98 381.724 130.285 382.159 130.707C382.59 131.123 382.965 131.642 383.285 132.267C383.608 132.895 383.9 133.615 384.172 134.433C384.449 135.25 384.79 136.172 385.212 137.201L388.472 146.332H379.162L377.236 140.277C376.786 138.832 376.36 137.645 375.964 136.716C375.563 135.79 375.126 135.05 374.667 134.507C374.201 133.957 373.675 133.585 373.078 133.376C372.486 133.164 371.779 133.063 370.947 133.063H369.074V146.332H360.145V112.766Z" fill="#9C092F"/>
<path d="M392.314 112.765H401.243V139.698H415.072V146.335H392.314V112.765Z" fill="#9C092F"/>
<path d="M427.125 139.697H430.581C433.941 139.697 436.518 138.849 438.309 137.146C440.102 135.45 441.002 132.921 441.002 129.549C441.002 126.184 440.083 123.651 438.259 121.952C436.434 120.252 433.878 119.401 430.581 119.401H427.125V139.697ZM418.191 112.764H430.386C433.302 112.764 435.976 113.025 438.404 113.535C440.84 114.048 442.925 114.94 444.675 116.207C446.415 117.472 447.78 119.181 448.753 121.328C449.731 123.472 450.221 126.168 450.221 129.406C450.221 132.55 449.722 135.194 448.728 137.342C447.736 139.493 446.362 141.229 444.599 142.559C442.841 143.889 440.744 144.849 438.309 145.442C435.877 146.036 433.236 146.333 430.386 146.333H418.191V112.764Z" fill="#9C092F"/>
<path fill-rule="evenodd" clip-rule="evenodd" d="M167.49 112.765V146.335H177.919V134.211H185.43L188.1 126.875H177.919V120.076H190.564L193.225 112.765H167.49Z" fill="#9C092F"/>
<path fill-rule="evenodd" clip-rule="evenodd" d="M196.419 146.332H206.848V112.763H196.419V146.332Z" fill="#9C092F"/>
<path fill-rule="evenodd" clip-rule="evenodd" d="M214.027 112.765V146.335H224.462V134.211H231.967L234.637 126.875H224.462V120.076H237.1L239.765 112.765H214.027Z" fill="#9C092F"/>
<path fill-rule="evenodd" clip-rule="evenodd" d="M256.009 135.373L251.838 121.391L247.81 135.373H256.009ZM269.631 146.335H259.097L257.735 141.824H245.946L244.64 146.335H234.371L246.582 112.766H257.428L269.631 146.335Z" fill="#9C092F"/>
<path d="M82.0755 0.00249089C73.1061 0.0261131 58.6257 3.98866 48.6123 4.97606C45.4788 5.27961 43.0492 5.85718 41.111 6.61427C35.4441 8.81704 34.0362 12.5588 31.6964 15.625C30.3299 17.4214 29.3708 17.966 28.1035 18.2648C28.0775 18.2695 28.0444 18.2683 28.0279 18.2766C18.4408 21.7195 -4.20814 49.7034 0.685194 88.3186C1.0348 92.1088 1.83088 95.7998 2.85136 99.414C12.2152 136.472 43.5548 186.172 51.2485 200.277C45.578 213.347 33.4752 240.184 29.6153 265.461C29.457 266.316 28.5228 272.126 28.4637 277.002C27.9511 289.85 30.3535 301.606 37.7921 310.048C37.8394 310.099 39.2532 311.618 39.3169 311.686C43.1213 315.441 47.6048 317.828 52.1178 319.261C58.5064 322.015 63.3667 320.477 68.0675 319.676C70.164 320.951 72.3585 321.934 74.5919 322.699C88.0342 327.352 103.076 323.62 110.121 319.676C119.571 316.602 123.877 311.044 126.576 302.43C129.296 294.317 133.462 277.762 124.038 253.26C119.806 242.68 111.288 226.12 98.1705 202.05L98.0866 201.907C108.603 181.972 136.764 132.648 141.778 118.235C142.051 117.474 142.285 116.737 142.52 116.002C151.035 94.1817 156.594 65.3189 142.02 38.451C141.294 37.0526 138.602 31.9927 137.675 30.2612C137.5 29.94 137.386 29.731 137.36 29.6837C125.601 8.05645 125.203 12.1501 117.862 10.8509C117.589 10.8037 117.306 10.7305 117.032 10.662C108.672 8.73324 94.3035 3.28236 87.2842 0.699276C85.9235 0.200848 84.146 -0.00468342 82.0755 0.00122212V0.00249089ZM63.9974 5.70607C71.4833 4.45645 81.0231 11.1958 87.4318 13.7884C92.4988 15.8376 92.7822 18.553 106.722 14.4616C122.357 9.873 130.856 19.812 137.357 29.6837C132.329 20.9931 122.384 18.4703 116.628 23.3246C112.566 26.7499 101.807 24.6285 100.253 23.7155C83.3038 13.7659 70.4156 6.75489 64.2738 7.38915C47.8788 9.08522 29.6803 28.4033 28.6184 30.4833C30.0547 27.4927 46.5619 8.6175 63.9974 5.70607ZM78.9278 22.1683C81.2889 22.2475 82.757 23.2148 85.3566 24.3439C90.7283 26.6754 95.8732 29.9022 104.196 29.9175C108.487 29.9246 111.443 28.1802 114.43 25.4554C115.517 24.4632 116.625 23.3199 116.625 23.3199C124.209 29.6211 140.661 45.1668 141.687 73.3516C143.498 123.108 93.7992 188.824 92.6807 192.743C87.2924 183.561 81.9042 174.053 76.516 165.248C76.516 165.248 110.669 95.2836 99.3681 64.922C87.1235 32.027 51.5816 41.6448 49.3788 42.9829C49.3788 42.9829 62.6179 23.275 77.8554 22.1896C78.2345 22.1624 78.59 22.1565 78.9278 22.1683ZM63.7506 43.6303C74.925 43.7129 90.1909 48.1054 96.5169 65.926C104.143 87.4434 87.8582 129.395 73.2679 159.791C62.6179 141.889 52.7851 125.313 46.4733 109.399C44.3804 102.945 42.7386 96.5923 41.7229 90.5013C38.1441 73.0694 39.637 62.828 46.2855 48.7196C46.426 48.4244 46.5772 48.122 46.7308 47.8173C49.895 46.009 54.2544 44.3223 59.2505 43.8298C60.6419 43.6928 62.1537 43.6184 63.7506 43.6303ZM53.9308 205.904C53.9308 205.904 63.2273 224.909 65.7691 232.923C69.1045 243.442 73.5006 258.267 73.5006 275.336C73.5006 291.252 64.3163 303.609 52.5489 303.609C42.1292 303.609 35.3661 294.095 34.7815 281.865C33.4492 253.992 53.9308 205.905 53.9308 205.905V205.904Z" fill="#9C092F"/>
<path d="M11.7842 59.8928C11.7842 66.5047 17.1346 71.8551 23.737 71.8551C30.3429 71.8551 35.6934 66.5047 35.6934 59.8928C35.6934 53.281 30.3429 47.9176 23.737 47.9176C17.1346 47.9176 11.7842 53.281 11.7842 59.8928ZM25.3339 54.2306C24.1256 53.7641 23.365 52.609 23.3567 51.3771C23.4807 51.3688 23.6047 51.344 23.737 51.344C25.6965 51.344 27.4811 52.0231 28.9209 53.144C28.3445 53.9519 27.4044 54.4315 26.4264 54.4315C26.0591 54.4315 25.6917 54.3677 25.3339 54.2306ZM15.7858 56.8185C16.5157 54.9322 17.8988 53.3921 19.6456 52.4295C19.9149 52.8795 20.0767 53.4133 20.0767 53.9649C20.0767 55.6763 18.6984 57.057 16.994 57.057C16.5629 57.057 16.1661 56.9803 15.7858 56.8185ZM21.9004 62.9247L20.3637 60.0251C20.1925 59.6956 20.2527 59.294 20.4996 59.0247L22.7886 56.6637C23.0449 56.3944 23.4464 56.3177 23.7748 56.4842L26.7252 57.9299C27.063 58.0917 27.2508 58.4472 27.1953 58.8192L26.7382 62.0744C26.6874 62.4465 26.4016 62.7369 26.0425 62.8007L22.8098 63.3665C22.7638 63.3747 22.7082 63.3748 22.661 63.3748C22.3445 63.3748 22.0551 63.207 21.9004 62.9247ZM29.5185 60.4964C29.5185 59.033 30.539 57.8224 31.8878 57.4893C32.1193 58.2594 32.2729 59.0507 32.2729 59.8928C32.2729 61.133 32 62.3094 31.5122 63.3748C30.3512 62.9378 29.5185 61.8133 29.5185 60.4964ZM15.4657 61.9114C15.7125 61.8476 15.9735 61.8051 16.2464 61.8051C17.9425 61.8051 19.3303 63.1822 19.3303 64.8925C19.3303 65.6023 19.0905 66.2354 18.6889 66.7574C17.1003 65.581 15.9429 63.8874 15.4657 61.9114ZM22.9728 68.365C23.1642 66.8472 24.4457 65.6755 26.013 65.6755C27.0417 65.6755 27.9512 66.1929 28.5146 66.976C27.1575 67.8996 25.5134 68.4382 23.737 68.4382C23.4724 68.4382 23.2209 68.3909 22.9728 68.365Z" fill="white"/>
<path d="M25.1543 38.1829L27.9134 42.9734L32.6957 40.2108L29.9366 35.4203L25.1543 38.1829Z" fill="white"/>
<path d="M18.3652 81.1232L22.3444 84.9678L26.183 80.9992L22.2074 77.1417L18.3652 81.1232Z" fill="white"/>
<path d="M98.5699 282.234C98.1435 282.795 97.9132 283.732 97.8104 284.933C97.7077 286.152 97.7502 287.242 97.8399 288.281C97.3923 287.79 96.5041 287.627 96.0293 287.991C96.1533 288.474 96.3163 288.914 96.3801 289.432C96.4309 289.791 96.4309 290.189 96.4356 290.574C95.6017 291.186 94.6415 292.015 94.5092 293.563C94.488 293.811 94.4962 294.038 94.4962 294.273C94.1844 293.289 93.6423 292.285 93.373 291.429C93.1297 290.668 92.6939 289.937 92.2675 289.552C92.1435 289.428 91.9816 289.389 91.8316 289.3C91.7383 289.552 91.6651 289.822 91.5718 290.052C91.5328 290.168 91.5163 290.287 91.469 290.518C91.1832 290.223 90.9529 289.954 90.6659 289.745C90.4533 289.59 90.197 289.523 89.936 289.471C89.3891 289.347 89.2958 289.479 89.2958 290.279C89.2958 290.54 89.2828 290.819 89.2745 291.16C88.0828 290.703 87.4214 291.669 87.4474 291.695C87.6989 291.93 87.921 292.075 87.9765 292.439C88.032 292.782 87.895 293.32 87.7237 293.787C87.3824 294.71 87.6092 296.28 88.2706 296.891C88.7442 297.331 89.6241 297.251 90.2442 296.647C90.9611 295.98 91.1832 293.919 90.7816 293.276C90.5383 292.893 90.3671 292.888 89.8934 293.213C90.0174 293.482 90.2655 293.743 90.2312 294.046C90.197 294.389 89.9584 294.864 89.7151 295.133C89.382 295.492 89.0052 295.526 88.7371 295.231C88.267 294.706 88.2588 293.794 88.6946 292.939C88.8174 292.704 89.1257 292.263 89.2828 292.144C89.9584 291.651 90.7568 291.511 91.247 291.861C91.7938 292.25 92.1269 292.879 92.1954 293.811C92.323 295.437 91.482 297.969 91.5588 299.585C91.6143 301.082 92.682 301.672 93.9246 301.916C94.4714 302.022 95.8852 302.186 96.1758 302.292C97.6522 302.822 98.9337 302.741 99.7191 301.376C100.526 299.978 100.966 297.339 101.829 295.949C102.328 295.158 102.905 294.756 103.571 294.645C104.178 294.564 104.818 295.034 105.194 295.786C105.287 295.967 105.347 296.493 105.355 296.767C105.339 297.724 104.908 298.532 104.255 298.777C103.866 298.917 103.545 298.73 103.421 298.25C103.332 297.904 103.34 297.374 103.473 297.044C103.579 296.767 103.912 296.656 104.147 296.467C103.878 295.957 103.724 295.876 103.332 296.112C102.678 296.506 101.995 298.4 102.328 299.315C102.589 300.133 103.34 300.603 103.959 300.427C104.843 300.179 105.685 298.939 105.821 297.942C105.881 297.463 106.018 296.925 106.214 296.638C106.431 296.334 106.692 296.308 107.038 296.223C107.064 296.215 107.086 296.155 107.132 296.082C106.94 295.034 106.222 295.205 105.659 294.923C105.804 294.602 105.92 294.363 106.047 294.119C106.42 293.409 106.394 293.247 105.847 293.122C105.595 293.053 105.339 292.986 105.07 293.032C104.728 293.079 104.39 293.229 104.002 293.357C104.062 293.131 104.101 293.015 104.122 292.904C104.157 292.647 104.211 292.369 104.246 292.108C104.178 292.116 104.118 292.116 104.058 292.108C103.946 292.108 103.84 292.1 103.725 292.134C103.179 292.288 102.811 292.63 102.116 293.041C101.466 293.426 100.629 294.397 99.9506 295.372C100.031 295.034 100.125 294.704 100.249 294.401C100.689 293.276 100.608 292.583 100.173 292.044L99.6766 291.24C99.7285 291.121 99.7841 290.984 99.8348 290.826C100.066 290.072 100.421 289.486 100.697 288.742C100.573 288.267 99.7285 287.827 99.1687 288.024C99.4852 287.006 99.7026 285.898 99.7108 284.607C99.7026 283.427 99.425 282.699 99.1096 282.138C99.0624 282.058 98.9939 282.024 98.9254 282.024C98.8061 282.024 98.6738 282.114 98.571 282.233L98.5699 282.234ZM76.8611 296.215C76.6686 295.544 76.4725 294.864 76.2634 294.133C75.3752 294.308 74.8461 294.988 74.4611 295.715C74.0855 296.438 73.8894 297.243 73.5988 297.982C73.2398 297.674 72.8807 297.349 72.5134 297.024C71.3689 298.379 71.1811 299.8 72.2193 301.459C73.0685 302.81 74.0725 304.05 75.0339 305.278C76.1264 306.684 77.2367 308.027 77.3134 309.867C77.3949 311.586 76.4725 313.087 75.0126 314.315C73.8551 315.295 72.5701 315.658 70.9555 315.667C70.9047 315.667 70.7677 316.146 70.7417 316.236C70.887 316.907 72.0918 316.603 72.6977 316.45C77.2544 315.295 80.1965 311.83 78.83 308.324C78.3044 306.929 76.528 304.713 75.8489 303.362C75.2808 302.254 74.7729 301.134 75.0162 299.826C75.3197 298.282 76.8221 296.776 78.7308 297.093C79.8162 297.267 80.6737 298.166 80.6654 299.256C80.6572 299.958 80.0595 300.886 79.3674 301.19C78.9186 301.378 78.4532 301.443 78.1071 301.117C77.7918 300.801 77.7918 300.407 78.0008 299.979C78.0351 299.911 78.0434 299.834 78.0611 299.752C77.3607 299.809 76.4808 300.767 76.5788 301.515C76.763 302.823 79.7005 303.867 81.0493 302.978C82.2883 302.174 82.9544 300.292 82.5103 298.778C82.0792 297.315 81.4213 296.549 80.0335 296.1C79.8847 296.041 79.756 295.981 79.6449 295.921C79.9225 295.219 80.1493 294.612 80.3843 293.945C80.2981 293.941 80.2095 293.941 80.1186 293.941C78.5902 293.941 77.7316 294.903 76.8611 296.216V296.215ZM87.3056 301.6C86.4174 301.98 85.3497 303.045 85.1489 303.781C85.5848 303.665 85.9911 303.52 86.3667 303.456C87.1816 303.354 87.7332 303.755 87.8785 304.517C87.9978 305.162 87.5277 306.296 86.8745 306.847C85.8151 307.75 84.6965 308.546 83.5993 309.38C82.3225 310.325 81.7509 311.445 81.8442 312.72C81.9599 314.422 83.3902 315.636 83.6418 315.88C81.4261 318.699 78.7957 321.051 76.1217 323.189C76.8564 323.403 77.5957 323.608 78.3304 323.771C80.7387 321.717 83.0867 319.537 85.358 317.044C87.2879 317.894 89.6501 318.083 91.5033 316.654C92.695 315.73 93.2454 314.61 93.7238 313.434C94.0864 312.544 94.3639 311.641 94.671 310.735C95.0986 309.504 95.9915 308.512 96.9258 308.143C97.7844 307.81 98.297 308.234 98.3738 309.354C98.3785 309.504 98.3868 309.641 98.4033 309.889C98.9927 309.14 99.2112 308.383 99.373 307.678C99.6588 306.33 99.3435 305.504 98.7789 304.966C98.1092 304.337 96.9813 304.29 95.8332 305.163C95.3844 305.484 94.8128 306.134 94.3982 306.767C93.8513 307.606 93.4072 308.452 92.9891 309.308C91.6308 311.108 90.5289 312.279 89.7777 312.981C90.6104 311.732 91.247 310.407 91.8021 309.068C92.284 307.913 92.682 306.741 93.0659 305.561C93.1167 305.416 93.1379 305.261 93.1982 304.992C92.9927 305.189 92.8781 305.261 92.7883 305.377C91.1915 307.314 89.3891 309.073 87.5997 310.792C87.4202 310.959 87.2844 311.146 87.1178 311.331C87.1946 310.407 87.869 309.21 88.5741 308.17C88.8387 307.901 89.0856 307.632 89.3206 307.34C90.0553 306.472 90.6919 305.424 91.0935 304.411C91.6061 303.081 91.1655 302.229 90.3966 301.712C89.9489 301.404 89.4494 301.234 88.8812 301.234C88.4159 301.234 87.8867 301.353 87.3056 301.601V301.6ZM69.0634 304.884C68.2862 304.838 66.7283 304.778 66.7106 304.838C71.0748 307.049 72.3599 310.089 73.0685 313.81C74.0087 313.353 74.9347 310.548 74.7729 309.071C74.5544 307.023 73.4193 305.53 71.5532 304.111C71.5012 304.393 71.4669 304.556 71.4162 304.77C70.4004 304.303 69.7638 303.315 68.4705 303.106C68.6795 303.747 68.8673 304.303 69.0634 304.884ZM108.392 310.244C108.319 310.205 108.208 310.163 108.088 310.098C107.247 309.623 104.092 308.913 102.473 310.654C101.358 311.891 100.026 314.995 102.067 316.334C102.567 316.651 102.931 316.959 103.724 316.569C104.386 316.231 104.826 315.615 105.133 314.91C105.194 314.781 105.202 314.64 105.249 314.439C105.12 314.537 105.052 314.575 104.988 314.648C104.33 315.367 103.946 315.556 103.626 315.337C103.306 315.14 103.053 313.955 103.417 313.301C104.386 311.56 106.214 310.974 107.119 311.53C107.837 311.976 107.999 312.934 107.422 314.357C106.748 316.021 105.616 317.356 104.253 317.92C103.011 318.433 101.79 318.63 100.568 318.792C99.8089 318.882 99.0565 318.702 98.2675 318.532C97.2718 318.305 96.2348 318.082 95.1163 318.395C92.0974 319.258 88.5741 322.039 86.571 324.827C86.9726 324.849 87.3694 324.857 87.771 324.857C88.3521 324.173 89.0442 323.501 89.8545 322.886C92.1777 321.089 94.4797 320.165 96.6482 320.263C98.3608 320.353 99.8809 320.678 101.469 320.747C102.443 320.794 103.396 320.854 104.407 320.675C105.829 320.417 107.208 319.332 108.409 317.356C108.025 317.274 107.67 317.201 107.272 317.103C108.939 315.606 110.266 313.857 110.702 311.539C110.015 312.017 109.378 312.415 108.712 312.805C109.151 311.876 109.584 310.995 109.852 310.135C110.138 309.225 110.105 308.489 109.78 307.988C109.323 308.75 108.9 309.452 108.392 310.243V310.244ZM75.2678 316.719C74.3158 317.497 74.3418 318.793 75.1272 319.815C75.3918 320.162 75.6953 320.461 75.9008 320.7C76.7241 320.02 77.4339 319.323 78.2312 318.712C79.9993 317.347 80.5119 315.765 80.2556 314.126C80.1954 313.725 80.0808 313.335 79.9733 312.826C78.3764 314.255 76.7631 315.482 75.2678 316.719ZM67.4453 317.228C66.5961 317.194 65.7893 317.151 64.9732 317.052C64.9649 317.121 65.8779 318.002 66.4165 318.408C66.0279 318.737 65.6641 319.036 65.2968 319.332C69.1921 319.178 72.087 320.983 74.9867 322.792C74.6146 320.452 71.3051 317.3 67.2917 316.727C67.339 316.89 67.385 317.044 67.4453 317.228ZM82.9887 322.231C82.3698 322.946 81.5064 323.613 80.7729 324.259C82.156 324.498 83.5178 324.653 84.8808 324.738C85.0379 324.666 85.1962 324.579 85.3414 324.468C86.0973 323.925 86.7163 323.194 87.3446 322.505C87.8005 321.996 88.1466 321.415 88.5871 320.872C88.997 320.354 89.4623 319.858 89.9147 319.319C87.1096 319.4 84.7603 320.183 82.9887 322.231ZM97.5458 322.128C95.1376 322.334 92.486 323.438 89.936 324.819C93.9588 324.669 97.8021 324.024 101.197 323.125C100.428 322.454 99.4592 322.102 98.1907 322.102C97.9852 322.102 97.7679 322.115 97.5458 322.128Z" fill="white"/>
<path d="M73.8253 198.19C73.6966 198.206 73.5903 198.275 73.582 198.404V198.446C73.6246 199.151 73.8159 199.969 74.508 201.025C75.2722 202.193 76.1096 203.061 76.9978 203.792C76.3872 203.955 75.8875 204.844 76.0706 205.349C76.7497 205.849 77.4159 206.174 78.0608 206.713C79.4143 207.825 80.11 207.23 80.2175 206.731C80.247 206.551 80.038 206.226 79.7262 205.849C80.012 206.111 80.3368 206.285 80.6734 206.282C81.2675 206.148 81.6691 205.875 81.2203 204.942C80.9817 204.468 80.5506 203.924 80.3155 203.428C80.0675 202.906 79.9517 202.423 79.7734 201.919C79.1368 201.868 78.4364 202.53 78.3384 203.24C77.7998 202.248 77.1939 201.238 76.3777 200.208C75.584 199.186 74.8151 198.476 74.1112 198.223C74.0592 198.207 74.0037 198.193 73.9529 198.19H73.8253ZM85.2171 202.599C85.379 203.745 86.5754 205.652 87.7707 207.129C87.2545 205.91 87.4636 205.216 87.9325 204.613C88.112 204.391 88.066 203.549 87.4116 202.749C87.16 202.436 86.5789 201.85 86.1998 201.744C86.0758 201.705 85.9565 201.687 85.8573 201.687C85.3412 201.687 85.1534 202.141 85.2171 202.599ZM93.2794 203.676C93.0018 203.899 92.5069 204.306 92.2294 205.841C91.9979 205.538 91.3542 204.964 91.0459 204.694C90.9313 204.892 90.7731 205.037 90.7093 205.268C90.4955 205.969 90.6101 206.812 91.1014 207.727C91.9388 209.314 92.8566 210.875 93.7837 212.427C95.4916 215.292 97.131 218.043 96.2003 220.558C96.3963 220.545 96.4613 220.55 96.4944 220.545C96.5593 220.524 96.5936 220.442 96.6444 220.413C97.9212 219.518 98.8684 218.009 97.9377 216.195C96.9822 214.322 94.4156 211.97 93.5227 210.049C93.0018 208.95 92.9759 208.026 93.3385 207.235C93.6715 206.525 94.6459 206.166 95.7219 206.285C95.9782 206.32 96.6054 206.633 96.8912 206.812C97.9377 207.522 98.5188 208.561 98.3133 209.442C98.1987 209.951 97.7581 210.17 97.1558 209.96C96.7117 209.806 96.1353 209.421 95.8755 209.057C95.6452 208.741 95.7597 208.296 95.7255 207.907C94.9826 207.834 94.7865 207.946 94.7652 208.535C94.718 209.524 95.9133 210.947 97.1475 211.242C98.2235 211.538 99.283 211.058 99.531 210.263C99.8889 209.139 99.505 207.997 98.5223 207.15C98.0357 206.748 97.5408 206.217 97.3778 205.789C97.2113 205.358 97.366 205.045 97.4983 204.605C97.5149 204.567 97.4641 204.507 97.4251 204.409C96.1448 203.869 95.8152 204.763 95.1066 205.174C94.8763 204.784 94.692 204.485 94.5089 204.172C94.2054 203.634 94.0259 203.399 93.8003 203.399C93.6585 203.399 93.4967 203.497 93.2794 203.676ZM83.2707 205.29C83.0569 205.49 82.9199 205.91 83.1419 206.311C83.5742 207.129 84.4494 207.941 85.4144 208.407C87.2545 209.297 88.9235 210.635 90.1624 212.346C90.3762 212.65 90.5805 212.957 90.7813 213.27C89.7183 212.213 88.4794 211.247 87.3573 210.263C86.149 209.224 84.9833 208.741 83.9959 208.788C83.7053 208.805 83.501 209.07 83.514 209.361C83.5612 210.379 84.2486 211.422 85.2774 212.672C86.149 213.727 87.0195 214.942 87.9679 216.088C87.7671 215.917 87.5581 215.759 87.3561 215.588C85.901 214.411 84.636 212.992 83.6203 211.353C83.1124 210.533 80.8742 207.782 79.9057 209.16C79.5549 209.656 80.0935 210.648 81.1305 211.448C82.0529 212.149 82.9966 212.739 83.9274 213.416C83.9451 214.544 84.3762 215.271 85.7215 216.25C86.4986 216.803 87.2758 217.226 88.0483 217.765C88.2798 217.927 88.6116 218.231 88.6931 218.45C89.0865 219.553 89.8128 220.134 90.6018 220.485C91.503 220.883 92.3144 220.9 92.8955 220.883C93.4247 220.861 93.9715 220.574 94.3389 220.078C94.881 219.355 95.2141 217.457 94.4026 215.947C94.1333 215.451 93.6302 214.878 93.1648 214.485C92.788 214.15 92.5624 213.936 92.3439 213.471C91.9093 212.517 91.3542 211.567 90.7093 210.652C89.7869 209.369 88.9801 208.955 88.0919 209.053C87.3148 208.087 86.6097 207.188 85.79 206.363C85.047 205.623 84.1718 205.169 83.638 205.169C83.4844 205.169 83.3557 205.208 83.2707 205.29ZM76.9931 213.445C76.9978 214.746 78.936 214.929 79.4143 214.746C80.0037 214.519 80.3793 214.065 80.9604 213.856C81.3573 213.727 81.9632 213.881 82.686 213.925C81.4222 213.129 79.5088 212.188 78.2568 212.188C77.5057 212.188 76.9895 212.526 76.9931 213.445ZM79.7639 215.801C79.5383 215.853 79.3801 215.999 79.1793 216.097C79.4569 216.426 79.8797 217.076 80.2423 217.355C79.7167 217.469 79.2525 217.513 78.838 217.675C78.5049 217.795 78.2651 218.03 78.0136 218.265C77.488 218.766 77.5695 218.967 78.4269 219.531C78.7305 219.729 79.008 219.929 79.3931 220.189C78.0478 221.148 78.6324 222.555 78.675 222.547C79.1108 222.431 79.4261 222.299 79.8573 222.495C80.2671 222.692 80.7667 223.222 81.1388 223.727C81.9242 224.771 83.0344 225.223 84.1789 224.941C84.9951 224.745 85.5242 223.722 85.3022 222.619C85.0801 221.374 83.7478 220.078 82.7663 220.065C82.1722 220.052 82.0447 220.241 82.0659 220.981C82.4581 221.049 82.8986 220.955 83.201 221.203C83.5518 221.49 83.9014 222.088 84.0254 222.546C84.1919 223.166 83.9533 223.58 83.436 223.662C82.5443 223.812 81.5404 223.166 80.9085 222.08C80.7372 221.777 80.4773 221.139 80.4596 220.874C80.4041 219.788 80.8187 218.838 81.5533 218.556C82.3683 218.244 83.2825 218.334 84.3419 218.915C86.1986 219.946 88.3766 222.653 90.1872 223.727C91.9341 224.771 93.5014 223.927 94.4699 222.709C94.5042 222.661 94.5857 222.627 94.6117 222.568C94.6152 222.537 94.6117 222.465 94.6412 222.268C92.0794 223.043 89.4443 221.225 86.6947 219.339C85.2171 218.313 83.7136 217.29 82.1935 216.349C81.5321 215.943 80.9002 215.733 80.3238 215.733C80.1313 215.733 79.9435 215.759 79.7639 215.801ZM101.268 217.131C99.8983 217.842 99.2912 219.766 100.555 222.234C100.867 222.824 101.242 223.449 101.675 223.992C103.348 226.114 105.227 227.833 107.084 229.591C108.212 230.676 109.272 231.853 110.343 233.042C113.101 236.117 112.593 239.765 112.67 239.936C113.899 237.931 114.976 235.865 113.964 232.665C113.319 230.668 111.966 229.309 110.568 228.093C109.51 227.161 108.4 226.37 107.298 225.51C105.799 224.343 104.842 222.637 104.783 221.178C104.728 219.848 105.551 219.342 107.136 219.783C107.34 219.84 107.461 219.869 107.819 219.972C107.239 218.894 106.196 218.163 105.287 217.606C104.309 217.012 103.472 216.777 102.742 216.777C102.191 216.777 101.704 216.913 101.268 217.131ZM98.9924 225.536C100.909 228.65 102.486 231.96 104.014 235.24C104.787 236.865 105.894 238.362 106.906 239.791C107.281 240.313 108.067 240.458 108.66 240.573C109.074 240.654 109.365 240.775 109.629 241.274C113.05 247.553 115.736 254.114 117.888 260.439C117.952 260.653 118.004 260.979 117.922 261.162C116.978 263.058 117.55 264.412 118.533 265.644C119.31 266.628 120.74 268.622 121.3 268.575C121.416 267.39 121.548 266.222 121.527 265.058C121.522 264.011 121.48 262.908 121.176 261.928C120.996 261.333 120.343 260.987 119.904 260.517C119.587 260.183 119.127 259.927 118.982 259.512C116.706 253.331 113.982 246.891 110.544 240.775C110.202 240.142 110.121 239.706 110.335 239.089C110.694 238.016 110.356 236.823 109.724 235.702C108.096 232.858 105.907 230.66 103.626 228.641C102.256 227.431 100.829 226.336 99.381 225.241C99.2027 225.1 99.0054 225.006 98.6641 224.792C98.8306 225.159 98.8861 225.365 98.9924 225.536ZM92.7963 227.062C91.614 227.94 91.0377 229.248 91.1829 231.249C91.294 232.644 92.2506 234.62 93.1719 235.244C93.2239 234.598 93.2109 233.969 93.3054 233.431C93.5475 232.267 94.3636 231.69 95.4739 231.853C96.4306 232.006 97.7676 233.191 98.2152 234.35C98.9676 236.223 99.5522 238.14 100.166 240.043C100.875 242.241 102.144 243.596 103.954 244.045C105.427 244.414 106.854 244.132 108.292 243.485C107.682 243.113 107.208 242.81 106.713 242.528C105.15 241.617 104.116 240.025 103.322 238.143C102.331 235.8 101.405 233.401 100.068 231.228C99.2097 229.799 98.07 228.431 96.8534 227.4C96.0326 226.711 95.2684 226.429 94.5692 226.429C93.9148 226.429 93.3172 226.677 92.7963 227.062ZM80.7679 242.13C79.7994 241.968 78.812 241.814 77.7454 241.643C77.4502 242.862 77.997 243.947 78.6974 244.88C79.3931 245.786 80.3025 246.506 81.0797 247.313C80.4655 247.591 79.8325 247.852 79.2136 248.118C80.2553 250.371 81.9632 251.475 84.6963 251.159C86.9262 250.893 89.0994 250.355 91.255 249.867C93.7105 249.324 96.081 248.721 98.4763 249.726C100.731 250.658 102.088 252.719 102.789 255.302C103.34 257.36 103.037 259.212 102.088 261.256C102.059 261.317 102.516 261.757 102.695 261.868C102.973 261.038 103.827 259.755 104.001 258.895C105.257 252.437 100.932 247.921 95.6274 247.553C93.5404 247.382 91.4215 247.635 89.2872 247.69C87.5368 247.746 85.7935 247.716 84.2864 246.63C82.4935 245.313 81.4648 242.511 83.0061 240.282C83.8896 239.013 85.5467 238.473 86.9215 239.124C87.8274 239.556 88.6553 240.868 88.6211 241.929C88.6034 242.622 88.4073 243.247 87.7801 243.485C87.1825 243.704 86.6864 243.472 86.26 242.939C86.1915 242.862 86.0971 242.805 86.0168 242.738C85.6577 243.653 86.3628 245.329 87.3833 245.654C89.1502 246.214 90.9313 243.934 90.603 241.698C90.3172 239.649 89.364 237.931 87.5664 237.126C85.5939 236.249 83.9203 236.562 82.5195 238.033C82.3529 238.195 82.1994 238.316 82.0589 238.435C81.3195 237.66 80.6793 237.006 79.9742 236.305C78.8132 238.383 79.5431 240.142 80.7691 242.13H80.7679ZM90.7896 245.5C92.801 245.436 94.894 242.852 93.9455 240.556C93.2628 238.841 91.1994 237.43 89.599 236.446C92.0794 239.29 93.0833 242.378 90.7908 245.5H90.7896ZM116.479 249.08C117.187 250.273 117.657 251.655 118.191 252.954C120.121 251.779 121.488 249.444 120.694 246.917C120.288 245.624 119.587 244.431 118.934 243.255C118.435 242.374 117.806 241.612 117.269 240.762C116.74 239.945 116.278 239.076 115.744 238.2C114.519 242.087 114.489 245.672 116.479 249.08ZM109.045 253.947C109.672 255.628 111.474 256.218 113.264 255.628C113.861 255.423 114.43 255.152 114.852 254.986C114.301 253.528 113.674 252.236 113.208 250.846C112.17 247.767 110.227 246.308 107.837 245.877C107.251 245.778 106.645 245.744 105.902 245.65C107.128 248.519 108.046 251.304 109.045 253.948V253.947ZM87.8049 253.682C88.1723 253.896 88.3778 254.007 88.6506 254.178C87.5356 255.358 85.862 255.751 84.9478 257.424C85.9435 257.441 86.8057 257.45 87.6904 257.458C87.2675 258.497 86.4479 260.614 86.5152 260.671C91.64 255.726 96.4483 255.41 101.922 256.226C101.738 254.717 98.2967 252.099 96.1825 251.62C95.5081 251.466 94.8503 251.389 94.2066 251.389C92.0369 251.389 89.9959 252.232 87.8049 253.682ZM120.224 255.268C121.594 254.73 122.957 254.229 124.301 253.947C124.213 253.716 124.131 253.481 124.041 253.254C123.81 252.677 123.558 252.073 123.307 251.458C121.966 252.545 120.835 253.933 120.224 255.268ZM120.492 258.669C120.415 258.695 120.36 258.806 120.224 259.011C122.282 259.378 123.046 261.191 123.431 263.291C124.622 263.001 125.16 261.975 125.681 261.046C126.13 261.457 126.548 261.945 127.026 262.296C126.611 260.786 126.146 259.238 125.622 257.655C125.348 257.625 125.07 257.603 124.801 257.603C123.349 257.603 121.919 258.048 120.492 258.669ZM102.597 265.901C102.844 265.909 103.092 265.914 103.37 265.918C102.917 267.06 102.468 268.159 101.952 269.224C102.033 269.276 103.699 268.441 104.514 267.894C104.783 268.596 105.018 269.229 105.253 269.87C106.896 264.451 110.753 261.355 114.626 258.236C114.34 258.186 114.036 258.164 113.721 258.164C110.245 258.164 105.074 261.116 102.597 265.902V265.901ZM115.181 262.231C113.84 263.386 112.593 264.66 111.918 266.406C111.257 268.082 111.466 269.425 112.537 270.567C113.883 269.34 114.887 268.103 114.493 266.547C115.432 266.496 116.329 266.431 117.465 266.349C116.624 264.497 116.103 262.86 117.251 260.884C117.187 260.832 117.132 260.777 117.063 260.734C116.462 261.243 115.8 261.709 115.181 262.231ZM123.111 264.618C123.803 265.798 124.293 266.837 124.99 267.697C125.472 268.335 126.267 268.753 127.248 268.335C127.589 268.198 128.05 267.839 128.285 267.484L123.111 264.618ZM128.285 267.479C128.192 267.023 128.089 266.567 127.983 266.098C127.292 266.179 126.758 265.773 126.317 265.452C125.583 264.926 124.797 264.588 123.708 264.588C123.521 264.588 123.32 264.597 123.111 264.618L128.285 267.479ZM116.013 270.208C115.736 271.123 115.352 271.876 114.131 272.137C114.617 272.847 115.36 272.979 116.219 272.881C117.026 272.783 117.589 272.209 117.94 271.58C118.474 270.626 118.533 269.481 118.405 268.492C118.337 267.95 118.23 267.307 118.054 266.953C116.945 267.971 116.381 269.061 116.013 270.208ZM124.425 271.765C125.378 272.308 126.77 271.679 127.534 270.109C126.267 270.46 125.81 269.66 125.16 269.001C124.588 268.428 123.854 268.053 123.119 267.534C122.739 269.13 123.392 271.191 124.425 271.765ZM119.096 271.507C119.126 272.372 119.139 273.15 118.255 273.95C119.096 274.198 119.831 273.989 120.557 273.411C121.21 272.907 121.406 272.282 121.372 271.576C121.308 270.349 120.412 268.882 119.259 268.338C119.233 269.497 119.05 270.549 119.096 271.507ZM123.008 275.121C123.118 275.293 123.258 275.386 123.432 275.404L123.008 275.121ZM123.563 275.404C123.712 275.391 123.888 275.335 124.092 275.232C124.677 274.937 124.874 274.604 124.784 274.151C124.545 272.871 123.61 272.077 122.58 271.311C122.384 272.765 122.329 274.074 123.008 275.121L123.563 275.404Z" fill="white"/>
<path d="M39.7516 187.088L41.4938 186.092L36.7493 177.808L35.0071 178.803L36.8308 181.998L28.2134 186.955L29.2988 188.854L37.9197 183.893L39.7516 187.088ZM47.5269 196.613L38.9957 197.968L44.4359 191.219L42.7446 188.28L32.3898 194.239L33.4705 196.134L41.3958 191.578L41.4253 191.63L35.1736 199.102L36.0618 200.65L45.6525 199.02L45.682 199.059L37.765 203.618L38.8505 205.513L49.2088 199.559L47.5269 196.613Z" fill="#9C092F"/>
</svg>
