<svg width="125" height="44" viewBox="0 0 125 44" fill="none" xmlns="http://www.w3.org/2000/svg">
<path d="M118.455 9.89478H85.2078V5.84613C85.2078 4.37538 84.6232 2.96486 83.5824 1.92489C82.5417 0.884917 81.1302 0.300659 79.6584 0.300659H46.0917C44.6241 0.307148 43.2189 0.894268 42.1835 1.93354C41.148 2.97281 40.5667 4.37963 40.5668 5.84613V9.89478H7.29468C6.44275 9.88172 5.59677 10.0386 4.80622 10.3561C4.01567 10.6736 3.29641 11.1455 2.69052 11.7441C2.08463 12.3427 1.60426 13.056 1.27752 13.8423C0.950777 14.6287 0.784222 15.4722 0.787587 16.3236V37.2785C0.784354 38.1216 0.947739 38.957 1.26837 39.7368C1.589 40.5167 2.06055 41.2256 2.656 41.8228C3.25144 42.4201 3.95904 42.8941 4.73821 43.2175C5.51737 43.5408 6.35276 43.7073 7.19646 43.7073H118.455C120.162 43.7073 121.798 43.0299 123.004 41.8243C124.211 40.6187 124.889 38.9835 124.889 37.2785V16.3236C124.889 14.6186 124.211 12.9834 123.004 11.7777C121.798 10.5721 120.162 9.89478 118.455 9.89478Z" fill="#D63A5F"/>
</svg>
