<svg width="396" height="709" viewBox="0 0 396 709" fill="none" xmlns="http://www.w3.org/2000/svg">
<path d="M108.732 598.368C115.317 602.875 121.379 606.143 126.946 608.223L122.746 618.028C115.067 615.28 107.415 610.948 99.7862 605.003C91.8845 609.388 83.1632 611.565 73.621 611.565C63.9796 611.565 55.2334 609.239 47.3814 604.608C39.5282 599.978 33.4915 593.44 29.2418 585.046C24.9922 576.627 22.8804 567.168 22.8804 556.618C22.8804 546.144 25.017 536.611 29.2903 527.994C33.5399 519.401 39.6286 512.864 47.5054 508.357C55.3822 503.876 64.204 501.622 73.9446 501.622C83.7833 501.622 92.6558 503.949 100.556 508.605C108.458 513.284 114.497 519.797 118.646 528.192C122.795 536.562 124.858 546.021 124.858 556.545C124.858 565.311 123.517 573.159 120.834 580.143C118.175 587.126 114.124 593.192 108.732 598.368V598.368ZM77.7218 580.391C85.8467 582.668 92.5554 586.061 97.8232 590.543C106.098 583.015 110.247 571.698 110.247 556.594C110.247 548.002 108.782 540.498 105.85 534.085C102.917 527.647 98.644 522.669 93.003 519.128C87.362 515.588 81.0254 513.805 74.0178 513.805C63.5071 513.805 54.7869 517.396 47.8774 524.551C40.9455 531.733 37.4919 542.429 37.4919 556.668C37.4919 570.461 40.9207 581.059 47.7546 588.463C54.6121 595.841 63.3583 599.532 74.0178 599.532C79.0387 599.532 83.7833 598.59 88.2562 596.708C83.8341 593.862 79.1876 591.83 74.3167 590.617L77.7218 580.391ZM192.819 600.126C187.948 604.262 183.253 607.158 178.755 608.867C174.257 610.576 169.436 611.417 164.268 611.417C155.77 611.417 149.235 609.362 144.663 605.226C140.09 601.116 137.804 595.841 137.804 589.428C137.804 585.665 138.673 582.223 140.388 579.103C142.128 575.983 144.389 573.507 147.172 571.625C149.98 569.742 153.111 568.306 156.614 567.34C159.199 566.672 163.1 566.028 168.293 565.384C178.878 564.146 186.707 562.636 191.7 560.903C191.75 559.12 191.775 557.981 191.775 557.51C191.775 552.211 190.532 548.472 188.047 546.293C184.693 543.346 179.699 541.885 173.09 541.885C166.902 541.885 162.33 542.975 159.398 545.129C156.441 547.284 154.279 551.096 152.863 556.594L140.041 554.811C141.208 549.339 143.122 544.906 145.806 541.539C148.489 538.17 152.366 535.595 157.434 533.762C162.478 531.955 168.367 531.04 175.028 531.04C181.637 531.04 187.029 531.807 191.178 533.367C195.304 534.927 198.359 536.858 200.299 539.211C202.236 541.564 203.602 544.534 204.399 548.126C204.821 550.353 205.045 554.366 205.045 560.135V577.468C205.045 589.577 205.317 597.229 205.864 600.472C206.386 603.716 207.479 606.812 209.07 609.783H195.352C194.037 607.035 193.191 603.815 192.819 600.126V600.126ZM191.775 571.154C187.004 573.085 179.848 574.72 170.306 576.057C164.889 576.824 161.062 577.691 158.826 578.656C156.589 579.622 154.876 581.035 153.657 582.867C152.44 584.724 151.818 586.779 151.818 589.057C151.818 592.499 153.136 595.396 155.795 597.699C158.453 600.001 162.33 601.166 167.424 601.166C172.467 601.166 176.965 600.077 180.916 597.873C184.843 595.694 187.751 592.697 189.589 588.909C191.005 585.961 191.7 581.629 191.7 575.908L191.775 571.154ZM253.673 598.121L255.462 609.659C251.785 610.427 248.479 610.823 245.596 610.823C240.85 610.823 237.172 610.081 234.539 608.569C231.929 607.06 230.091 605.102 229.022 602.652C227.955 600.2 227.431 595.05 227.431 587.2V542.777H217.742V532.673H227.431V513.607L240.552 505.757V532.673H253.673V542.777H240.552V587.943C240.552 591.682 240.776 594.084 241.248 595.148C241.696 596.213 242.441 597.056 243.484 597.699C244.528 598.318 246.019 598.639 247.958 598.639C249.399 598.639 251.312 598.467 253.673 598.121V598.121ZM317.161 600.126C312.291 604.262 307.595 607.158 303.097 608.867C298.598 610.576 293.778 611.417 288.61 611.417C280.11 611.417 273.576 609.362 269.004 605.226C264.432 601.116 262.145 595.841 262.145 589.428C262.145 585.665 263.015 582.223 264.73 579.103C266.47 575.983 268.73 573.507 271.514 571.625C274.322 569.742 277.453 568.306 280.956 567.34C283.541 566.672 287.441 566.028 292.635 565.384C303.22 564.146 311.048 562.636 316.042 560.903C316.092 559.12 316.116 557.981 316.116 557.51C316.116 552.211 314.874 548.472 312.389 546.293C309.034 543.346 304.041 541.885 297.431 541.885C291.243 541.885 286.671 542.975 283.739 545.129C280.782 547.284 278.621 551.096 277.205 556.594L264.383 554.811C265.549 549.339 267.464 544.906 270.148 541.539C272.831 538.17 276.707 535.595 281.776 533.762C286.82 531.955 292.709 531.04 299.369 531.04C305.978 531.04 311.371 531.807 315.52 533.367C319.646 534.927 322.701 536.858 324.641 539.211C326.578 541.564 327.944 544.534 328.74 548.126C329.163 550.353 329.386 554.366 329.386 560.135V577.468C329.386 589.577 329.659 597.229 330.206 600.472C330.727 603.716 331.821 606.812 333.411 609.783H319.695C318.378 607.035 317.533 603.815 317.161 600.126V600.126ZM316.116 571.154C311.346 573.085 304.19 574.72 294.647 576.057C289.231 576.824 285.404 577.691 283.168 578.656C280.931 579.622 279.217 581.035 277.998 582.867C276.782 584.724 276.159 586.779 276.159 589.057C276.159 592.499 277.478 595.396 280.136 597.699C282.795 600.001 286.671 601.166 291.765 601.166C296.809 601.166 301.306 600.077 305.257 597.873C309.185 595.694 312.091 592.697 313.93 588.909C315.346 585.961 316.042 581.629 316.042 575.908L316.116 571.154ZM349.388 609.783V532.673H361.168V544.484C364.174 539.012 366.956 535.398 369.516 533.663C372.075 531.906 374.884 531.04 377.939 531.04C382.363 531.04 386.86 532.427 391.432 535.175L386.76 547.234C383.579 545.451 380.4 544.56 377.219 544.56C374.362 544.56 371.802 545.426 369.541 547.135C367.28 548.843 365.664 551.22 364.694 554.266C363.23 558.898 362.509 563.973 362.509 569.494V609.783H349.388V609.783Z" fill="#F8F2E0"/>
<path d="M30.4038 639.199H42.7393V641.744H33.4192V646.726H41.4614V649.271H33.4192V657.232H30.4038V639.199ZM184.3 644.857C183.63 642.584 182.163 641.446 179.898 641.446C176.367 641.446 174.6 643.675 174.6 648.135C174.6 652.72 176.33 655.011 179.791 655.011C182.29 655.011 183.856 653.595 184.492 650.761L187.426 651.628C186.339 655.563 183.83 657.53 179.898 657.53C177.308 657.53 175.261 656.699 173.758 655.039C172.273 653.36 171.53 651.077 171.53 648.188C171.53 645.337 172.3 643.072 173.841 641.392C175.361 639.714 177.426 638.874 180.034 638.874C182.987 638.874 185.124 639.984 186.448 642.205C186.719 642.656 186.982 643.305 187.236 644.155L184.3 644.857V644.857ZM49.043 648.188C49.043 650.301 49.5496 651.961 50.5642 653.17C51.5611 654.397 52.9371 655.011 54.6946 655.011C56.4143 655.011 57.7832 654.397 58.7978 653.17C59.8112 651.961 60.319 650.327 60.319 648.27C60.319 643.72 58.4352 641.446 54.6674 641.446C52.9099 641.446 51.5339 642.043 50.5371 643.233C49.5402 644.425 49.043 646.076 49.043 648.188V648.188ZM45.9449 648.135C45.9449 645.337 46.7421 643.089 48.3366 641.392C49.93 639.714 52.0501 638.874 54.6946 638.874C57.3202 638.874 59.432 639.723 61.0253 641.419C62.6009 643.116 63.3888 645.382 63.3888 648.215C63.3888 651.068 62.6009 653.333 61.0253 655.011C59.4497 656.691 57.3202 657.53 54.6402 657.53C51.9957 657.53 49.8851 656.682 48.3095 654.984C46.7339 653.288 45.9449 651.004 45.9449 648.135ZM68.7971 648.188C68.7971 650.301 69.3038 651.961 70.3183 653.17C71.314 654.397 72.6912 655.011 74.4487 655.011C76.1684 655.011 77.5361 654.397 78.5507 653.17C79.5641 651.961 80.0732 650.327 80.0732 648.27C80.0732 643.72 78.1893 641.446 74.4203 641.446C72.664 641.446 71.2868 642.043 70.2912 643.233C69.2943 644.425 68.7971 646.076 68.7971 648.188V648.188ZM65.699 648.135C65.699 645.337 66.4963 643.089 68.0896 641.392C69.6841 639.714 71.8042 638.874 74.4487 638.874C77.0743 638.874 79.185 639.723 80.7795 641.419C82.3551 643.116 83.1429 645.382 83.1429 648.215C83.1429 651.068 82.3551 653.333 80.7795 655.011C79.2039 656.691 77.0743 657.53 74.3944 657.53C71.7498 657.53 69.6392 656.682 68.0636 654.984C66.488 653.288 65.699 651.004 65.699 648.135ZM90.5071 641.744H84.8283V639.199H99.2013V641.744H93.5225V657.232H90.5071V641.744V641.744ZM106.564 646.591C108.231 646.591 109.373 646.42 109.988 646.076C110.621 645.733 110.94 645.092 110.94 644.155C110.94 643.179 110.631 642.529 110.016 642.205C109.399 641.88 108.149 641.717 106.266 641.717H103.359V646.591H106.564V646.591ZM107.325 654.687C110.206 654.687 111.645 653.775 111.645 651.952C111.645 650.508 110.949 649.633 109.553 649.326C108.992 649.199 108.132 649.135 106.972 649.135H103.359V654.687H107.325V654.687ZM100.369 639.199H107.379C109.336 639.199 110.758 639.452 111.645 639.957C113.131 640.824 113.874 642.096 113.874 643.774C113.874 645.544 113.023 646.835 111.319 647.646C113.601 648.314 114.744 649.777 114.744 652.033C114.744 654.579 113.601 656.176 111.319 656.826C110.396 657.096 108.929 657.232 106.917 657.232H100.369V639.199V639.199ZM129.442 649.948L127.758 645.508C127.178 643.902 126.789 642.79 126.59 642.177C126.282 643.296 125.956 644.308 125.612 645.209L123.874 649.948H129.442ZM118.031 657.232L125.04 639.199H128.22L135.556 657.232H132.241L130.393 652.413H123.003L121.21 657.232H118.031V657.232ZM135.692 639.199H138.681V654.687H147.703V657.232H135.692V639.199V639.199ZM150.446 639.199H153.434V654.687H162.456V657.232H150.446V639.199V639.199ZM189.709 639.199H192.697V646.455H201.065V639.199H204.055V657.232H201.065V649.028H192.724V657.232H189.709V639.199ZM219.298 649.948L217.613 645.508C217.033 643.902 216.643 642.79 216.444 642.177C216.136 643.296 215.81 644.308 215.466 645.209L213.727 649.948H219.298ZM207.886 657.232L214.896 639.199H218.076L225.411 657.232H222.096L220.249 652.413H212.859L211.066 657.232H207.886ZM243.779 639.199V657.232H240.898V641.446L236.008 657.232H233.236L228.373 641.446V657.232H225.547V639.199H230.383L234.703 653.333L239.105 639.199H243.779V639.199ZM253.831 647.593C255.244 647.593 256.259 647.412 256.875 647.052C257.744 646.582 258.179 645.779 258.179 644.641C258.179 643.432 257.736 642.619 256.848 642.205C256.25 641.898 255.199 641.744 253.697 641.744H250.409V647.593H253.831V647.593ZM247.419 639.199H253.804C256.268 639.199 257.953 639.452 258.858 639.957C260.47 640.896 261.277 642.439 261.277 644.587C261.277 647.404 260.028 649.145 257.527 649.812C256.658 650.048 255.48 650.165 253.996 650.165H250.436V657.232H247.419V639.199V639.199ZM264.265 639.199H267.255V657.232H264.265V639.199ZM274.455 648.188C274.455 650.301 274.961 651.961 275.976 653.17C276.972 654.397 278.349 655.011 280.106 655.011C281.827 655.011 283.195 654.397 284.208 653.17C285.223 651.961 285.731 650.327 285.731 648.27C285.731 643.72 283.847 641.446 280.079 641.446C278.322 641.446 276.946 642.043 275.95 643.233C274.952 644.425 274.455 646.076 274.455 648.188ZM271.357 648.135C271.357 645.337 272.154 643.089 273.749 641.392C275.342 639.714 277.462 638.874 280.106 638.874C282.733 638.874 284.843 639.723 286.437 641.419C288.013 643.116 288.801 645.382 288.801 648.215C288.801 651.068 288.013 653.333 286.437 655.011C284.862 656.691 282.733 657.53 280.052 657.53C277.408 657.53 275.297 656.682 273.721 654.984C272.146 653.288 271.357 651.004 271.357 648.135ZM291.11 639.199H294.072L302.115 651.682L302.767 652.791V652.629C302.694 651.961 302.659 651.293 302.659 650.625L302.604 639.199H305.431V657.232H302.413L293.827 644.073C293.791 643.982 293.755 643.91 293.719 643.856L293.827 645.183L293.909 657.232H291.11V639.199V639.199ZM312.168 651.14C312.495 653.704 314.043 654.984 316.815 654.984C319.532 654.984 320.89 654.045 320.89 652.168C320.89 651.465 320.637 650.932 320.13 650.572C319.622 650.174 318.399 649.741 316.462 649.271C314.107 648.676 312.495 648.044 311.624 647.376C310.52 646.473 309.967 645.31 309.967 643.883C309.967 642.384 310.556 641.176 311.733 640.255C312.911 639.335 314.469 638.874 316.408 638.874C320.862 638.874 323.164 640.688 323.308 644.316L320.374 644.479C320.12 642.439 318.826 641.419 316.488 641.419C314.043 641.419 312.821 642.177 312.821 643.694C312.821 644.344 313.11 644.849 313.69 645.209C314.289 645.589 315.402 645.959 317.033 646.321C319.459 646.879 321.135 647.521 322.058 648.242C323.255 649.145 323.852 650.391 323.852 651.978C323.852 653.694 323.218 655.048 321.95 656.04C320.682 657.033 318.952 657.53 316.76 657.53C312.069 657.53 309.579 655.49 309.288 651.41L312.168 651.14V651.14ZM326.134 639.199H329.124V646.455H337.492V639.199H340.48V657.232H337.492V649.028H329.15V657.232H326.134V639.199V639.199ZM344.312 639.199H347.301V657.232H344.312V639.199ZM357.815 647.593C359.229 647.593 360.243 647.412 360.859 647.052C361.728 646.582 362.163 645.779 362.163 644.641C362.163 643.432 361.72 642.619 360.832 642.205C360.234 641.898 359.183 641.744 357.68 641.744H354.393V647.593H357.815V647.593ZM351.403 639.199H357.788C360.252 639.199 361.936 639.452 362.842 639.957C364.454 640.896 365.261 642.439 365.261 644.587C365.261 647.404 364.012 649.145 361.511 649.812C360.642 650.048 359.464 650.165 357.98 650.165H354.419V657.232H351.403V639.199V639.199Z" fill="#F8F2E0"/>
<path d="M42.5611 669.635C44.4521 669.635 46.1588 669.913 47.6741 670.464C49.1883 671.013 50.4745 671.781 51.5423 672.758C52.6112 673.744 53.4344 674.912 54.0025 676.264C54.5718 677.625 54.8517 679.118 54.8517 680.749C54.8517 682.145 54.6592 683.444 54.2647 684.631C53.8714 685.826 53.3293 686.96 52.6466 688.033C51.9627 689.115 51.1749 690.153 50.2726 691.165C49.3714 692.168 48.4088 693.189 47.393 694.228L39.9083 701.895C40.8721 701.591 41.8253 701.337 42.7619 701.154C43.6985 700.971 44.5737 700.883 45.3969 700.883H52.5403C53.4155 700.883 54.1076 701.119 54.6155 701.599C55.1234 702.078 55.3773 702.715 55.3773 703.501V708.212H28.4834V705.595C28.4834 705.088 28.5897 704.548 28.7999 703.972C29.0102 703.397 29.3763 702.872 29.9019 702.401L40.9323 691.33C41.8772 690.388 42.7005 689.49 43.4009 688.635C44.1013 687.78 44.68 686.933 45.1347 686.105C45.5906 685.276 45.9308 684.448 46.1588 683.619C46.3855 682.79 46.5001 681.917 46.5001 680.992C46.5001 679.474 46.141 678.306 45.4147 677.495C44.6883 676.683 43.5757 676.282 42.0875 676.282C41.4756 676.282 40.9146 676.369 40.4067 676.544C39.9 676.719 39.4441 676.954 39.0414 677.25C38.6386 677.547 38.2973 677.896 38.0079 678.298C37.7197 678.698 37.4835 679.135 37.3087 679.606C37.0276 680.391 36.678 680.958 36.2492 681.306C35.8205 681.656 35.2335 681.83 34.4988 681.83C34.3228 681.83 34.1386 681.821 33.9378 681.804C33.7358 681.787 33.5268 681.761 33.3165 681.726L29.0102 680.976C29.2889 679.074 29.8311 677.408 30.6283 675.985C31.4256 674.572 32.4153 673.386 33.5964 672.443C34.7787 671.502 36.1264 670.795 37.65 670.332C39.1725 669.87 40.8107 669.635 42.5611 669.635V669.635ZM86.632 689.115C86.632 692.456 86.2717 695.344 85.5536 697.786C84.8355 700.23 83.8469 702.253 82.5772 703.867C81.3087 705.473 79.8016 706.667 78.0606 707.453C76.3173 708.238 74.4275 708.63 72.396 708.63C70.3645 708.63 68.4924 708.238 66.7668 707.453C65.0424 706.667 63.5447 705.473 62.2845 703.867C61.0242 702.253 60.0439 700.23 59.3341 697.786C58.6254 695.344 58.2663 692.456 58.2663 689.115C58.2663 685.783 58.6254 682.895 59.3341 680.452C60.0439 678.01 61.0242 675.976 62.2845 674.371C63.5447 672.767 65.0424 671.58 66.7668 670.804C68.4924 670.027 70.3645 669.635 72.396 669.635C74.4275 669.635 76.3173 670.027 78.0606 670.804C79.8016 671.58 81.3087 672.767 82.5772 674.371C83.8469 675.976 84.8355 678.01 85.5536 680.452C86.2717 682.895 86.632 685.783 86.632 689.115ZM78.226 689.115C78.226 686.489 78.0606 684.334 77.7275 682.65C77.3945 680.966 76.9575 679.649 76.4047 678.689C75.8543 677.73 75.2236 677.067 74.5232 676.709C73.8228 676.352 73.1141 676.177 72.396 676.177C71.6791 676.177 70.9775 676.352 70.2865 676.709C69.5944 677.067 68.9814 677.73 68.4475 678.689C67.9137 679.649 67.4849 680.966 67.1613 682.65C66.8365 684.334 66.6712 686.489 66.6712 689.115C66.6712 691.767 66.8365 693.93 67.1613 695.605C67.4849 697.281 67.9137 698.598 68.4475 699.566C68.9814 700.535 69.5944 701.197 70.2865 701.555C70.9775 701.913 71.6791 702.087 72.396 702.087C73.1141 702.087 73.8228 701.913 74.5232 701.555C75.2236 701.197 75.8543 700.535 76.4047 699.566C76.9575 698.598 77.3945 697.281 77.7275 695.605C78.0606 693.93 78.226 691.767 78.226 689.115ZM103.492 669.635C105.383 669.635 107.09 669.913 108.604 670.464C110.12 671.013 111.406 671.781 112.474 672.758C113.542 673.744 114.366 674.912 114.934 676.264C115.503 677.625 115.783 679.118 115.783 680.749C115.783 682.145 115.59 683.444 115.196 684.631C114.803 685.826 114.261 686.96 113.577 688.033C112.894 689.115 112.106 690.153 111.204 691.165C110.303 692.168 109.34 693.189 108.324 694.228L100.84 701.895C101.802 701.591 102.757 701.337 103.694 701.154C104.631 700.971 105.506 700.883 106.328 700.883H113.472C114.348 700.883 115.039 701.119 115.547 701.599C116.055 702.078 116.309 702.715 116.309 703.501V708.212H89.4158V705.595C89.4158 705.088 89.5198 704.548 89.73 703.972C89.9403 703.397 90.3076 702.872 90.8332 702.401L101.864 691.33C102.808 690.388 103.632 689.49 104.332 688.635C105.033 687.78 105.61 686.933 106.065 686.105C106.521 685.276 106.863 684.448 107.09 683.619C107.318 682.79 107.431 681.917 107.431 680.992C107.431 679.474 107.072 678.306 106.346 677.495C105.62 676.683 104.507 676.282 103.019 676.282C102.406 676.282 101.846 676.369 101.338 676.544C100.83 676.719 100.375 676.954 99.9726 677.25C99.5699 677.547 99.2285 677.896 98.9392 678.298C98.651 678.698 98.4136 679.135 98.2399 679.606C97.9588 680.391 97.6092 680.958 97.1805 681.306C96.7517 681.656 96.1647 681.83 95.4289 681.83C95.2529 681.83 95.0698 681.821 94.869 681.804C94.6683 681.787 94.458 681.761 94.2478 681.726L89.9402 680.976C90.2202 679.074 90.7635 677.408 91.5596 675.985C92.3568 674.572 93.3454 673.386 94.5265 672.443C95.71 671.502 97.0565 670.795 98.5801 670.332C100.104 669.87 101.741 669.635 103.492 669.635V669.635ZM133.958 669.635C135.848 669.635 137.556 669.913 139.071 670.464C140.584 671.013 141.871 671.781 142.939 672.758C144.008 673.744 144.831 674.912 145.399 676.264C145.969 677.625 146.249 679.118 146.249 680.749C146.249 682.145 146.056 683.444 145.662 684.631C145.268 685.826 144.725 686.96 144.042 688.033C143.358 689.115 142.572 690.153 141.669 691.165C140.768 692.168 139.806 693.189 138.79 694.228L131.305 701.895C132.269 701.591 133.222 701.337 134.159 701.154C135.095 700.971 135.971 700.883 136.794 700.883H143.937C144.812 700.883 145.505 701.119 146.012 701.599C146.52 702.078 146.773 702.715 146.773 703.501V708.212H119.88V705.595C119.88 705.088 119.985 704.548 120.196 703.972C120.406 703.397 120.773 702.872 121.299 702.401L132.329 691.33C133.274 690.388 134.097 689.49 134.798 688.635C135.498 687.78 136.076 686.933 136.53 686.105C136.986 685.276 137.328 684.448 137.556 683.619C137.784 682.79 137.896 681.917 137.896 680.992C137.896 679.474 137.538 678.306 136.812 677.495C136.084 676.683 134.973 676.282 133.484 676.282C132.871 676.282 132.311 676.369 131.804 676.544C131.296 676.719 130.841 676.954 130.438 677.25C130.035 677.547 129.694 677.896 129.405 678.298C129.117 678.698 128.88 679.135 128.706 679.606C128.424 680.391 128.075 680.958 127.646 681.306C127.216 681.656 126.63 681.83 125.895 681.83C125.72 681.83 125.535 681.821 125.335 681.804C125.133 681.787 124.924 681.761 124.713 681.726L120.406 680.976C120.686 679.074 121.228 677.408 122.025 675.985C122.822 674.572 123.811 673.386 124.993 672.443C126.176 671.502 127.523 670.795 129.046 670.332C130.569 669.87 132.206 669.635 133.958 669.635V669.635ZM179.919 701.826C181.145 701.826 182.23 701.722 183.175 701.512C184.121 701.302 185.014 701.023 185.855 700.674V694.864H182.072C181.512 694.864 181.075 694.715 180.758 694.419C180.444 694.123 180.286 693.748 180.286 693.293V688.426H193.89V704.61C192.911 705.315 191.894 705.917 190.836 706.424C189.776 706.929 188.647 707.349 187.448 707.679C186.247 708.003 184.97 708.246 183.613 708.395C182.256 708.552 180.794 708.63 179.236 708.63C176.434 708.63 173.843 708.133 171.462 707.148C169.081 706.162 167.023 704.801 165.281 703.065C163.539 701.329 162.174 699.27 161.184 696.889C160.195 694.498 159.696 691.915 159.696 689.115C159.696 686.271 160.169 683.663 161.115 681.272C162.06 678.89 163.417 676.841 165.176 675.104C166.936 673.378 169.063 672.033 171.559 671.074C174.053 670.114 176.837 669.635 179.919 669.635C181.512 669.635 183.008 669.766 184.409 670.027C185.81 670.289 187.106 670.655 188.288 671.109C189.47 671.562 190.546 672.103 191.528 672.74C192.507 673.368 193.382 674.048 194.153 674.79L191.58 678.681C191.334 679.048 191.046 679.336 190.705 679.545C190.363 679.754 189.986 679.859 189.584 679.859C189.058 679.859 188.515 679.685 187.955 679.336C187.255 678.917 186.599 678.559 185.977 678.253C185.355 677.948 184.716 677.704 184.068 677.511C183.421 677.32 182.738 677.181 182.02 677.093C181.302 677.006 180.496 676.962 179.603 676.962C177.94 676.962 176.443 677.25 175.111 677.835C173.782 678.42 172.654 679.249 171.716 680.313C170.779 681.377 170.053 682.65 169.545 684.142C169.037 685.634 168.783 687.3 168.783 689.132C168.783 691.157 169.063 692.953 169.624 694.524C170.184 696.094 170.962 697.42 171.952 698.502C172.941 699.584 174.115 700.404 175.471 700.971C176.828 701.538 178.308 701.826 179.919 701.826V701.826ZM208.178 694.079V708.186H199.301V670.001H211.75C214.516 670.001 216.879 670.289 218.832 670.856C220.785 671.423 222.377 672.217 223.612 673.229C224.846 674.241 225.739 675.435 226.3 676.823C226.86 678.201 227.141 679.711 227.141 681.334C227.141 682.572 226.974 683.75 226.641 684.849C226.308 685.948 225.818 686.969 225.161 687.903C224.504 688.836 223.699 689.673 222.746 690.407C221.791 691.147 220.688 691.75 219.445 692.221C220.04 692.517 220.601 692.884 221.117 693.319C221.633 693.756 222.08 694.289 222.465 694.916L230.607 708.186H222.57C221.082 708.186 220.014 707.627 219.365 706.511L213.01 695.44C212.73 694.952 212.406 694.602 212.03 694.393C211.653 694.184 211.12 694.079 210.436 694.079H208.178ZM208.178 687.955H211.75C212.958 687.955 213.991 687.798 214.839 687.493C215.689 687.187 216.381 686.769 216.924 686.228C217.466 685.686 217.861 685.049 218.105 684.325C218.351 683.601 218.473 682.825 218.473 681.988C218.473 680.313 217.93 679.003 216.835 678.062C215.742 677.119 214.043 676.648 211.75 676.648H208.178V687.955ZM270.684 689.115C270.684 691.881 270.211 694.445 269.258 696.818C268.304 699.192 266.955 701.259 265.221 703.012C263.488 704.766 261.405 706.144 258.962 707.138C256.52 708.133 253.806 708.63 250.829 708.63C247.854 708.63 245.14 708.133 242.688 707.138C240.237 706.144 238.144 704.766 236.402 703.012C234.661 701.259 233.312 699.192 232.359 696.818C231.403 694.445 230.921 691.881 230.921 689.115C230.921 686.358 231.403 683.793 232.359 681.421C233.312 679.048 234.661 676.988 236.402 675.234C238.144 673.491 240.237 672.121 242.688 671.126C245.14 670.132 247.854 669.635 250.829 669.635C253.806 669.635 256.52 670.14 258.962 671.143C261.405 672.147 263.488 673.517 265.221 675.261C266.955 677.014 268.304 679.074 269.258 681.447C270.211 683.82 270.684 686.376 270.684 689.115ZM261.597 689.132C261.597 687.247 261.352 685.547 260.863 684.038C260.371 682.529 259.671 681.254 258.752 680.208C257.833 679.161 256.704 678.358 255.373 677.8C254.043 677.242 252.528 676.962 250.829 676.962C249.114 676.962 247.59 677.242 246.251 677.8C244.912 678.358 243.783 679.161 242.864 680.208C241.944 681.254 241.235 682.529 240.745 684.038C240.253 685.547 240.009 687.247 240.009 689.132C240.009 691.035 240.253 692.736 240.745 694.244C241.235 695.754 241.944 697.036 242.864 698.083C243.783 699.13 244.912 699.924 246.251 700.473C247.59 701.023 249.114 701.302 250.829 701.302C252.528 701.302 254.043 701.023 255.373 700.473C256.704 699.924 257.833 699.13 258.752 698.083C259.671 697.036 260.371 695.754 260.863 694.244C261.352 692.736 261.597 691.035 261.597 689.132ZM290.855 701.197C292.045 701.197 293.113 700.997 294.05 700.604C294.986 700.211 295.775 699.654 296.422 698.92C297.071 698.188 297.569 697.289 297.911 696.233C298.252 695.178 298.418 693.983 298.418 692.639V670.053H307.296V692.657C307.296 694.994 306.919 697.141 306.157 699.095C305.395 701.049 304.302 702.742 302.883 704.155C301.465 705.569 299.74 706.667 297.709 707.453C295.678 708.238 293.393 708.63 290.855 708.63C288.298 708.63 286.005 708.238 283.974 707.453C281.943 706.667 280.218 705.569 278.8 704.155C277.382 702.742 276.296 701.049 275.544 699.095C274.792 697.141 274.414 694.994 274.414 692.657V670.053H283.291V692.613C283.291 693.957 283.466 695.152 283.807 696.207C284.149 697.263 284.64 698.162 285.287 698.904C285.935 699.645 286.731 700.211 287.668 700.604C288.605 700.997 289.664 701.197 290.855 701.197V701.197ZM321.95 695.44V708.186H313.074V670.001H326.573C329.27 670.001 331.589 670.323 333.524 670.96C335.459 671.598 337.052 672.479 338.304 673.595C339.555 674.711 340.474 676.029 341.07 677.556C341.665 679.074 341.963 680.723 341.963 682.485C341.963 684.387 341.657 686.141 341.044 687.728C340.431 689.324 339.494 690.685 338.234 691.819C336.972 692.953 335.379 693.843 333.444 694.48C331.51 695.117 329.216 695.44 326.573 695.44H321.95V695.44ZM321.95 688.74H326.573C328.884 688.74 330.547 688.19 331.563 687.091C332.577 685.992 333.085 684.456 333.085 682.485C333.085 681.612 332.955 680.819 332.692 680.103C332.43 679.388 332.035 678.768 331.501 678.253C330.968 677.738 330.293 677.346 329.479 677.067C328.666 676.787 327.694 676.648 326.573 676.648H321.95V688.74ZM367.91 677.809C367.649 678.227 367.377 678.541 367.088 678.75C366.799 678.951 366.422 679.056 365.968 679.056C365.565 679.056 365.136 678.935 364.673 678.681C364.208 678.428 363.682 678.14 363.097 677.826C362.509 677.511 361.836 677.233 361.082 676.98C360.329 676.727 359.473 676.596 358.509 676.596C356.846 676.596 355.612 676.954 354.797 677.66C353.983 678.367 353.572 679.317 353.572 680.522C353.572 681.29 353.817 681.926 354.308 682.441C354.797 682.947 355.445 683.383 356.241 683.75C357.038 684.116 357.949 684.448 358.973 684.753C359.997 685.058 361.04 685.399 362.106 685.773C363.175 686.149 364.225 686.594 365.249 687.1C366.275 687.606 367.185 688.251 367.981 689.036C368.779 689.822 369.416 690.781 369.908 691.907C370.398 693.032 370.644 694.393 370.644 695.98C370.644 697.743 370.336 699.393 369.723 700.927C369.11 702.462 368.226 703.806 367.061 704.95C365.898 706.092 364.463 706.991 362.755 707.645C361.048 708.299 359.104 708.63 356.933 708.63C355.743 708.63 354.534 708.508 353.3 708.273C352.066 708.029 350.867 707.689 349.711 707.252C348.556 706.816 347.469 706.293 346.454 705.69C345.439 705.088 344.555 704.417 343.803 703.685L346.428 699.479C346.62 699.165 346.891 698.904 347.242 698.711C347.592 698.52 347.969 698.423 348.371 698.423C348.897 698.423 349.431 698.589 349.965 698.92C350.499 699.252 351.103 699.619 351.778 700.02C352.451 700.421 353.221 700.788 354.097 701.119C354.973 701.45 356.005 701.617 357.195 701.617C358.808 701.617 360.058 701.259 360.951 700.553C361.844 699.845 362.291 698.729 362.291 697.193C362.291 696.295 362.046 695.571 361.556 695.013C361.066 694.453 360.426 693.991 359.628 693.625C358.834 693.259 357.923 692.937 356.907 692.657C355.891 692.377 354.85 692.073 353.782 691.732C352.714 691.392 351.673 690.974 350.657 690.467C349.64 689.97 348.739 689.315 347.943 688.504C347.145 687.694 346.497 686.682 346.008 685.469C345.518 684.256 345.273 682.754 345.273 680.976C345.273 679.545 345.56 678.149 346.139 676.787C346.717 675.427 347.566 674.206 348.687 673.141C349.808 672.077 351.181 671.23 352.809 670.594C354.438 669.957 356.304 669.635 358.404 669.635C359.577 669.635 360.723 669.73 361.836 669.913C362.947 670.096 363.999 670.367 364.997 670.733C365.994 671.091 366.93 671.528 367.797 672.025C368.664 672.531 369.434 673.098 370.118 673.734L367.91 677.809V677.809Z" fill="#F8F2E0"/>
<path d="M188.379 302.506C70.2998 274.83 15.0521 194.458 2.72243 128.471C-5.38828 85.0691 4.9252 47.6114 29.6376 30.7169C50.991 16.1219 80.2058 18.9306 111.894 38.6279L103.728 51.7666C77.1833 35.2665 54.5816 32.4011 38.3684 43.487C19.0903 56.667 11.067 88.91 17.9281 125.629C29.3636 186.824 81.0727 261.467 191.91 287.445L188.379 302.506V302.506Z" fill="#FDC111"/>
<path d="M191.909 287.445C171.438 282.647 152.997 276.179 136.441 268.452C120.408 267.781 104.082 264.32 87.5298 257.599C114.172 277.025 147.506 292.926 188.379 302.506L191.909 287.445V287.445Z" fill="#E48E05"/>
<path d="M188.379 302.506L191.91 287.445C174.1 283.271 157.829 277.829 142.995 271.398L125.172 280.219C143.857 289.382 164.863 296.994 188.379 302.506Z" fill="#CC620C"/>
<path d="M207.499 302.506L203.969 287.445C314.807 261.467 366.517 186.824 377.951 125.63C384.814 88.9101 376.789 56.667 357.511 43.487C341.3 32.4047 318.699 35.2654 292.152 51.7666L283.986 38.628C315.676 18.9307 344.891 16.1184 366.242 30.7169C390.954 47.6115 401.268 85.0691 393.158 128.471C380.827 194.459 325.578 274.83 207.499 302.506Z" fill="#FDC111"/>
<path d="M393.158 128.471C397.702 104.151 396.455 81.7017 390.138 63.6863C386.468 69.7017 382.691 75.756 378.804 81.8222C381.086 94.8179 380.909 109.803 377.951 125.629C366.517 186.824 314.807 261.467 203.969 287.445L207.499 302.506C325.578 274.83 380.827 194.458 393.158 128.471V128.471Z" fill="#E48E05"/>
<path d="M203.969 287.445L207.499 302.506C234.026 296.289 257.354 287.395 277.764 276.621C278.004 270.666 279.168 264.002 281.693 256.643C259.903 269.675 234.144 280.372 203.969 287.445Z" fill="#CC620C"/>
<path d="M293.766 13.2805H106.671V22.9951H293.766V13.2805Z" fill="#E48E05"/>
<path d="M309.035 0H91.4028V13.7434H309.035V0Z" fill="#FDC111"/>
<path d="M89.7408 21.1454C90.3231 56.7262 92.9783 118.244 103.3 183.347C123.484 310.663 196.681 307.075 197.94 307.004C199.198 307.075 272.395 310.663 292.579 183.347C302.9 118.244 305.556 56.7262 306.137 21.1454H89.7408V21.1454Z" fill="#FDC111"/>
<path d="M286.89 465.196C286.89 465.196 282.263 447.155 263.761 447.155C245.26 447.155 230.457 431.891 230.457 410.613C230.457 389.337 221.669 368.522 209.643 368.522V296.364L197.94 305.066L186.237 296.364V368.522C174.209 368.522 165.422 389.337 165.422 410.613C165.422 431.891 150.62 447.155 132.117 447.155C113.615 447.155 108.991 465.196 108.991 465.196H90.4873V475.371H195.334H200.546H305.392V465.196H286.89V465.196Z" fill="#FDC111"/>
<path d="M280.468 466.842C280.331 466.309 276.967 453.785 263.761 453.785C240.997 453.785 223.828 435.226 223.828 410.615C223.828 402.574 222.525 395.423 220.608 389.67C213.415 422.546 188.759 453.959 122.012 457.04C117.293 460.624 115.644 465.99 115.414 466.842L114.925 468.741H280.955L280.468 466.842V466.842Z" fill="#E48E05"/>
<path d="M280.468 466.842C280.331 466.309 276.967 453.785 263.761 453.785C252.547 453.785 242.702 449.265 235.587 441.751C211.136 454.131 173.537 463.377 116.146 464.818C115.728 465.806 115.487 466.569 115.414 466.842L114.925 468.741H280.955L280.468 466.842V466.842Z" fill="#CC620C"/>
<path d="M209.643 322.124H186.237V348.97H209.643V322.124Z" fill="#E48E05"/>
<path d="M205.51 335.997H190.369C181.783 335.997 174.822 329.036 174.822 320.451C174.822 311.864 181.783 304.903 190.369 304.903H205.51C214.097 304.903 221.057 311.864 221.057 320.451C221.057 329.036 214.097 335.997 205.51 335.997Z" fill="#FDC111"/>
<path d="M190.369 329.367H205.51C210.427 329.367 214.427 325.367 214.427 320.451H181.452C181.452 325.367 185.452 329.367 190.369 329.367Z" fill="#E48E05"/>
<path d="M205.51 370.046H190.369C181.783 370.046 174.822 363.085 174.822 354.499C174.822 345.913 181.783 338.952 190.369 338.952H205.51C214.097 338.952 221.057 345.913 221.057 354.499C221.057 363.085 214.097 370.046 205.51 370.046Z" fill="#FDC111"/>
<path d="M190.369 363.416H205.51C210.427 363.416 214.427 359.416 214.427 354.5H181.452C181.452 359.416 185.452 363.416 190.369 363.416Z" fill="#E48E05"/>
<path d="M126.976 242.637C152.439 298.368 191.463 300.396 196.934 300.396C197.283 300.396 197.5 300.388 197.565 300.385L197.95 300.366L198.309 300.385C198.38 300.388 198.947 300.396 198.947 300.396C205.951 300.396 267.836 297.077 286.031 182.309C295.459 122.841 298.531 66.5307 299.38 27.7738H249.475C240.87 208.167 172.294 241.018 126.976 242.637V242.637Z" fill="#E48E05"/>
<path d="M196.02 398.16C191.319 406.302 183.256 410.448 178.01 407.421C172.764 404.391 172.323 395.334 177.024 387.192C181.725 379.05 189.788 374.905 195.035 377.933C200.28 380.961 200.722 390.018 196.02 398.16V398.16Z" fill="#FFD46B"/>
<path d="M180.886 104.812C165.873 130.815 140.122 144.055 123.369 134.383C106.619 124.711 94.5716 76.7202 109.585 50.7158C124.598 24.7137 160.986 30.5448 177.737 40.2169C194.489 49.889 195.899 78.8096 180.886 104.812V104.812Z" fill="#FFD46B"/>
<path d="M156.871 86.6461C148.252 101.572 133.9 109.42 124.813 104.173C115.725 98.9261 109.751 71.9212 118.369 56.9956C126.987 42.0699 146.933 44.8739 156.02 50.1204C165.108 55.3668 165.488 71.7205 156.871 86.6461Z" fill="#FFE2A3"/>
<path d="M297.815 68.6519C287.764 157.065 252.419 256.014 147.167 274.358C163.946 293.15 181.43 298.417 190.754 299.858C221.349 290.568 246.994 269.962 268.313 243.899C275.673 228.152 281.952 208.039 286.031 182.309C292.524 141.357 296.001 101.907 297.815 68.6519Z" fill="#CC620C"/>
</svg>
